# xmcd
#
# Track frame offsets:
#	150
#	12232
#	21705
#	32003
#	41335
#	55341
#	65684
#	75449
#	87906
#	97866
#	111697
#	123807
#	135449
#	145906
#	156576
#	167551
#	177996
#	188360
#	197863
#	208596
#	229052
#
# Disc length: 4440 seconds
#
# Revision: 0
# Processed by: cddbd v1.5.2PL0 Copyright (c) Steve Scherf et al.
# Submitted via: dBpowerAMP V4.0
#
DISCID=1d115615
DTITLE=Al Caiola - 40 Exitos
DYEAR=2007
DGENRE=Easy Listening 
TTITLE0=The Guns Of Navarone
TTITLE1=Wheels
TTITLE2=Guitar Boogie  Al Caiola
TTITLE3=The Magnificent Seven
TTITLE4=The Shadow Of Your Smile
TTITLE5=Never On Sunday
TTITLE6=Estambul
TTITLE7=Spanish Harlem
TTITLE8=Calcutta
TTITLE9=Morning Of The Carnival
TTITLE10=I'll Walk The Line
TTITLE11=Big Guitar
TTITLE12=Fascination
TTITLE13=Estoy Enamorado
TTITLE14=Happy Brasilia
TTITLE15=Jezebel
TTITLE16=Cuando Calienta El Sol
TTITLE17=Around The World
TTITLE18=Foot Stompin'
TTITLE19=Sabor A Mi
TTITLE20=DATA
EXTD=
EXTT0=
EXTT1=
EXTT2=
EXTT3=
EXTT4=
EXTT5=
EXTT6=
EXTT7=
EXTT8=
EXTT9=
EXTT10=
EXTT11=
EXTT12=
EXTT13=
EXTT14=
EXTT15=
EXTT16=
EXTT17=
EXTT18=
EXTT19=
EXTT20=
PLAYORDER=
